<svg id="Layer_1" data-name="Layer 1" xmlns="http://www.w3.org/2000/svg" viewBox="0 0 409.47 172.37"><defs><style>.cls-1{font-size:44.66px;}.cls-1,.cls-2{fill:#fff;}.cls-1,.cls-2,.cls-5{font-family:TrebuchetMS-Bold, Trebuchet MS;font-weight:700;}.cls-2,.cls-5{font-size:26.31px;}.cls-3{letter-spacing:-0.14em;}.cls-4{letter-spacing:0em;}.cls-5{fill:#004990;}.cls-6{fill:#f2c612;}</style></defs><text class="cls-1" transform="translate(112.56 123.78)">Philadelphia</text><text class="cls-2" transform="translate(114.53 77.5)">City<tspan class="cls-3" x="48.43" y="0"> </tspan><tspan class="cls-4" x="52.67" y="0">of</tspan></text><text class="cls-5" transform="translate(162.94 84.5)"> </text><path class="cls-6" d="M60.19,113.82c.2,2.1.6,5.33.89,6.57,13,3.44,21.89,1.75,24,.32,1.55-1.06,2.58-1.59.48-5.94-4.71,1.93-14.47,1.8-25.33-1"/><path class="cls-6" d="M54.93,119.74a2.78,2.78,0,0,0-2.65,4.77l-.65,1.27a2.83,2.83,0,0,0,1.08.6,2.37,2.37,0,0,0,1.15.13l.22-1.36a2.77,2.77,0,0,0,.85-5.41"/><path class="cls-6" d="M102,60.8c.66-2.37-.87-2.8-1.39-2.95L84.81,53.44C83.6,53.1,84,50.32,82.88,50L70.44,46.53c-1.13-.31-2.21,2.27-3.43,1.94L51.2,44.05c-.53-.15-2.06-.58-2.72,1.79L44.89,58.7a.27.27,0,0,1-.36.2l-1.13-.31c-.38-.11-.72,0-1,.57a13.53,13.53,0,0,0-1.13,2.91,18.93,18.93,0,0,0-.66,3.5c0,.48,0,.85.58,1l10.12,2.83a1.49,1.49,0,0,0,1.93-.9c1.08-2.3,3.83-6.66,4.74-7.19,1.24-.69,8.38.5,8.38.5a8.13,8.13,0,0,0-.48,1.52c-.28,1.13.36,3.89-.29,4.26-3.55,2-9.87-1-12,4.9C48.28,87.58,44.38,94,38.46,97.94c2.77,3.26,9.33,6.7,18.79,9.57a4.09,4.09,0,0,1-.1-.88,32.17,32.17,0,0,0-.23-3.45c-.23-2.08-.36-3.09-.41-4.14a11.53,11.53,0,0,1,.61-3.76c.06-.22.12-.45.2-.69.7-2.41,3-9.12,3.86-11,.16-.33.35-.27.4-.26s.26.07.21.43c-.24,2.08-1.94,9-2.64,11.37-.08.24-.14.46-.2.67a9.05,9.05,0,0,0-.39,3.41c0,.89.26,2,.5,4.09s.22,3.06.24,3.55a4.47,4.47,0,0,0,.25,1.35l.17,0c10.8,3,19.14,3.68,23.54,2.2-3-6.42-3-14,.23-29.58C84.77,74.7,77.8,74,75.8,70.47c-.36-.65,1.64-2.68,2-3.79a6.8,6.8,0,0,0,.35-1.56s7,2.79,7.74,4c.52.92.6,6.08.33,8.61A1.48,1.48,0,0,0,87.4,79.5l10.13,2.83c.6.17.79-.15,1-.57a18.81,18.81,0,0,0,1.26-3.34,12.89,12.89,0,0,0,.53-3.07c0-.6-.19-.91-.57-1L98.63,74a.27.27,0,0,1-.2-.36"/><path class="cls-6" d="M34.3,100.49c-4.1,2.79-3.57,4.25-2.42,5.74,2.79,3.6,10.28,9,24,12.81l3.11.84c-.22-1.07-.71-4.56-1-6.64C46.6,110,37.5,104.79,34.3,100.49"/></svg>